<?xml version="1.0" encoding="utf-8"?>
<!-- Generator: Adobe Illustrator 26.2.1, SVG Export Plug-In . SVG Version: 6.00 Build 0)  -->
<svg version="1.1" id="Livello_1" xmlns="http://www.w3.org/2000/svg" xmlns:xlink="http://www.w3.org/1999/xlink" x="0px" y="0px"
	 viewBox="0 0 841.89 595.28" style="enable-background:new 0 0 841.89 595.28;" xml:space="preserve">
<style type="text/css">
	.st0{fill:#B41D1B;}
	.st1{fill:#FFFFFF;}
</style>
<g>
	<path class="st0" d="M568.12,187.4c0.79,4.06,8.33,32.9,3.36,76.84c-3.91-2.31-7.93-4.43-11.94-6.42
		c-1.94-0.96-3.89-1.91-5.87-2.78c0.15-3.04,0.24-6.15-0.14-9.15c-0.17-1.42-0.91-3.46-2.76-2.67c-0.88,0.38-1.25,1.53-1.87,2.19
		c-0.98,1.01-2.31,1.39-3.67,1.52c-2.8,0.26-5.42-0.98-7.93-2.01c-2.45-1.01-4.9-2.02-7.35-3.03c-0.2-0.08-25.33-10.43-37.99-15.65
		c-1.45-3.63-2.92-7.25-4.43-10.86C508.66,211.2,531.78,201.12,568.12,187.4z"/>
	<path class="st1" d="M563.98,294.18c1,0.71,0.42,2.29-0.8,2.2c-2.25-0.16-4.94-0.71-6.33-2.29c-0.96-1.09-1.4-1.87-1.82-3.27
		C553.99,287.43,560.14,291.42,563.98,294.18z"/>
	<path class="st1" d="M527.03,359.02c0.45-1.68,0.04-2.29-1.75-2.36c-2.74-0.1-5.5-0.09-8.25-0.08c-1.7,0.01-3.19,1.16-3.63,2.81
		c-0.67,2.51-1.36,5.03-2.08,7.68c-0.13,0.46,0.22,0.92,0.71,0.92c3.33,0,6.55,0.01,9.77-0.01c1.9-0.01,2.83-0.68,3.39-2.52
		C525.84,363.33,526.46,361.18,527.03,359.02z M508.34,377.09c-0.09,0.3-0.38,0.51-0.69,0.51h-0.43c-0.48,0-0.83-0.46-0.71-0.93
		c1.14-4.04,2.29-8.08,3.41-12.13c0.52-1.9,0.98-3.82,1.47-5.73c0.59-2.29,2.36-4.08,4.73-4.15c3.4-0.1,6.78-0.05,10.08-0.01
		c2.46,0.04,3.54,1.85,2.92,4.23c-0.6,2.32-1.25,4.63-1.94,6.92c-0.78,2.63-2.94,4.24-5.71,4.26c-3.15,0.03-6.31,0.06-9.46-0.02
		c-1.13-0.02-1.69,0.24-1.97,1.44C509.59,373.38,508.94,375.22,508.34,377.09z"/>
	<path class="st0" d="M525.28,356.67c1.79,0.06,2.2,0.68,1.75,2.36c-0.58,2.16-1.19,4.31-1.85,6.45c-0.56,1.84-1.49,2.51-3.39,2.52
		c-3.21,0.01-6.44,0.01-9.77,0.01c-0.48,0-0.83-0.46-0.71-0.92c0.72-2.65,1.41-5.17,2.08-7.68c0.44-1.65,1.93-2.8,3.63-2.81
		C519.79,356.57,522.54,356.57,525.28,356.67z"/>
	<path class="st1" d="M493.89,354.61c0.88,0.27,0.5,1.03,0.32,1.63c-0.88,3.08-1.79,6.15-2.66,9.23c-0.52,1.85-0.04,2.5,1.88,2.52
		c2.78,0.04,5.57,0.02,8.35,0.01c1.86-0.02,2.94-0.87,3.48-2.7c0.88-3.03,1.73-6.06,2.61-9.08c0.13-0.45,0.29-0.95,0.59-1.28
		c0.3-0.32,0.77-0.58,1.3-0.28c0.49,0.27,0.44,0.72,0.32,1.12c-1.06,3.64-1.97,7.32-3.26,10.88c-0.83,2.3-2.87,3.36-5.34,3.41
		c-1.39,0.04-2.78,0.01-4.17,0.01c0-0.04-3.53-0.01-5.28-0.15c-2.06-0.17-3.26-1.87-2.73-3.86c0.92-3.46,1.95-6.88,2.94-10.31
		C492.49,354.92,493.04,354.35,493.89,354.61z"/>
	<path class="st0" d="M473.08,363.76c-1.15,0.22-1.42-0.06-1.04-1.19c0.46-1.36,0.73-2.79,1.19-4.16c0.48-1.46,1.52-2.28,3.12-2.29
		c1.49-0.01,2.99,0,4.48,0c1.55,0,3.1-0.05,4.65,0.02c1.38,0.06,1.84,0.76,1.56,2.14c-0.37,1.83-1.29,3.12-3.26,3.48
		C480.21,362.41,476.64,363.07,473.08,363.76z"/>
	<path class="st1" d="M487.04,358.29c0.28-1.38-0.18-2.07-1.56-2.14c-1.55-0.07-3.1-0.02-4.65-0.02c-1.49,0-2.99-0.01-4.48,0
		c-1.59,0.01-2.63,0.82-3.12,2.29c-0.45,1.37-0.73,2.79-1.19,4.16c-0.38,1.12-0.11,1.41,1.04,1.19c3.56-0.69,7.13-1.35,10.7-1.99
		C485.75,361.41,486.67,360.12,487.04,358.29z M471.32,366.54c0.07,0.96,0.97,1.15,1.83,1.15c3.59-0.01,10.76,0.02,10.76,0.02
		c0.6,0.1,1.65-0.3,1.7,0.78c0.06,1.12-0.86,1.26-1.82,1.27c-1.75,0.01-9.47-0.05-11.55-0.15c-1.06-0.05-1.9-0.39-2.44-0.99v-5.2
		c0.48-1.93,1.03-3.86,1.72-5.71c0.84-2.27,2.72-3.53,5.22-3.57c3.05-0.04,6.1-0.03,9.15-0.02c2.21,0.01,3.46,1.36,3.35,3.57
		c-0.14,2.75-2.06,5.13-4.71,5.8c-3.84,0.96-7.69,1.43-11.58,2.15C472.37,365.74,471.24,365.45,471.32,366.54z"/>
	<path class="st0" d="M497.33,370.06c1.39,0,2.79,0.03,4.17-0.01c2.46-0.05,4.51-1.1,5.34-3.41c1.28-3.56,2.2-7.24,3.26-10.88
		c0.12-0.4,0.17-0.85-0.32-1.12c-0.53-0.29-1.01-0.04-1.3,0.28c-0.31,0.33-0.46,0.83-0.59,1.28c-0.88,3.02-1.73,6.05-2.61,9.08
		c-0.53,1.83-1.62,2.68-3.48,2.7c-2.78,0.02-5.57,0.03-8.35-0.01c-1.92-0.02-2.4-0.67-1.88-2.52c0.87-3.08,1.77-6.15,2.66-9.23
		c0.18-0.59,0.56-1.36-0.32-1.63c-0.85-0.26-1.4,0.31-1.63,1.12c-0.99,3.44-2.03,6.86-2.94,10.31c-0.52,1.99,0.68,3.69,2.73,3.86
		C493.8,370.05,497.33,370.02,497.33,370.06z M469.8,368.62c0.53,0.59,1.38,0.94,2.44,0.99c2.08,0.09,9.8,0.16,11.55,0.15
		c0.96-0.01,1.88-0.15,1.82-1.27c-0.05-1.08-1.1-0.68-1.7-0.78c0,0-7.17-0.02-10.76-0.02c-0.86,0-1.76-0.18-1.83-1.15
		c-0.08-1.09,1.05-0.79,1.63-0.91c3.88-0.72,7.74-1.19,11.58-2.15c2.66-0.66,4.57-3.04,4.71-5.8c0.11-2.21-1.14-3.56-3.35-3.57
		c-3.04-0.01-6.09-0.02-9.15,0.02c-2.5,0.04-4.38,1.29-5.22,3.57c-0.69,1.86-1.25,3.78-1.72,5.71v-45.64
		c5.57-1.35,11.11-2.77,16.66-4.2c6.91-1.77,13.82-3.59,20.72-5.43c0.49-0.14,0.98-0.26,1.46-0.39c0.37,0.1,0.75,0.2,1.12,0.3
		c5.18,1.39,10.36,2.77,15.54,4.13c7.48,1.97,14.98,3.93,22.48,5.81c3.24,0.81,6.3,1.18,9.64,1.3c0.69,0.03,1.39,0.05,2.09,0.06
		c-13.89,41.52-40.54,83.6-89.71,110.85V368.62z M529.13,358.87c0.62-2.39-0.46-4.2-2.92-4.23c-3.3-0.04-6.68-0.09-10.08,0.01
		c-2.37,0.06-4.14,1.86-4.73,4.15c-0.49,1.91-0.95,3.83-1.47,5.73c-1.12,4.05-2.27,8.09-3.41,12.13c-0.13,0.47,0.22,0.93,0.71,0.93
		h0.43c0.32,0,0.6-0.21,0.69-0.51c0.59-1.86,1.25-3.71,1.7-5.61c0.29-1.2,0.84-1.46,1.97-1.44c3.15,0.08,6.31,0.05,9.46,0.02
		c2.77-0.02,4.93-1.63,5.71-4.26C527.88,363.5,528.53,361.19,529.13,358.87z"/>
	<path class="st1" d="M469.23,365.86c0.18-0.82,0.36-1.63,0.56-2.44v5.2C469.2,367.96,468.98,367.01,469.23,365.86z"/>
	<path class="st1" d="M462.41,367.63c0.8,0,1.42-0.36,1.97-0.88c0.59-0.56,0.78-0.92,0.88-0.95c0.35-0.11,1.03-0.12,1.52-0.07
		c0.16,0.01,0.26,0.18,0.21,0.34c-0.65,1.95-2.46,3.46-4.51,3.51c-3.31,0.08-6.64,0.09-9.95,0c-2.32-0.06-3.59-1.83-3.01-4.07
		c0.63-2.43,1.33-4.84,2.07-7.24c0.75-2.46,2.97-4.07,5.52-4.08c2.89-0.02,5.78-0.03,8.67,0c2.15,0.02,3.36,0.96,3.6,2.68
		c0.05,0.34,0.16,0.99-0.07,1.19c-0.08,0.07-1.22,0.14-1.59,0.01c-0.17-0.06-0.31-0.22-0.38-0.53c-0.27-1.19-1.1-1.28-2.06-1.29
		c-2.67-0.03-5.35-0.09-8.02-0.11c-2.09-0.01-3.14,0.75-3.76,2.77c-0.65,2.15-1.28,4.3-1.83,6.47c-0.4,1.58,0.11,2.21,1.76,2.23
		C456.42,367.65,459.42,367.62,462.41,367.63z"/>
	<path class="st0" d="M455.8,216.92c-0.42,1.23-0.86,2.46-1.32,3.67l-59.79,7.98c-0.29-0.32-0.62-0.59-0.93-0.89
		c-1.23-1.25-2.49-2.47-3.76-3.68c-3.07-2.94-6.21-5.87-9.57-8.48c-1.01-0.79-2.14-1.69-3.37-2.11c-1.39-0.46-2.67,0.43-2.51,1.92
		c0.06,0.56,0.31,1.12,0.55,1.64c0.79,1.69,1.57,3.41,1.8,5.28c0.27,2.16-1.21,4.97-2.28,6.74c-2.31,3.83-7.02,6.04-11.04,7.46
		c-0.02-1.4-0.04-2.76-0.04-4.08c0-27.02,5.04-39.82,6.92-44.62C409.39,205.62,434.33,214.65,455.8,216.92z"/>
	<path class="st0" d="M446.1,360.01c0.79-0.15,1.25-0.17,0.9,0.89c-0.44,1.31-0.73,2.67-1.13,4c-0.64,2.12-1.53,2.76-3.7,2.78
		c-1.39,0.01-2.78,0.01-4.17,0.01c-1.5-0.01-3,0.04-4.49-0.02c-1.45-0.05-1.98-0.82-1.62-2.24c0.48-1.85,1.45-3.09,3.51-3.43
		C438.99,361.43,442.54,360.69,446.1,360.01z"/>
	<path class="st1" d="M433.51,367.66c1.49,0.05,2.99,0.01,4.49,0.02c1.39,0,2.78,0.01,4.17-0.01c2.17-0.02,3.06-0.66,3.7-2.78
		c0.41-1.32,0.69-2.69,1.13-4c0.35-1.06-0.11-1.04-0.9-0.89c-3.56,0.68-7.11,1.42-10.69,1.99c-2.07,0.33-3.04,1.58-3.51,3.43
		C431.53,366.84,432.06,367.62,433.51,367.66z M434.67,356.12c-0.58,0-1.42,0.28-1.33-0.82c0.06-0.83,0.51-1.2,1.38-1.19
		c2.03,0.04,4.07,0.01,6.09,0.01c0,0.01,0,0.01,0,0.01c1.87,0,3.75-0.02,5.62,0.01c2.33,0.04,3.69,1.44,3.29,3.7
		c-0.52,2.94-1.25,5.87-2.44,8.6c-0.92,2.1-2.8,3.26-5.13,3.26c-2.99,0.01-5.98-0.05-8.97,0c-2.6,0.04-3.91-1.66-3.36-4.25
		c0.55-2.63,1.95-4.63,4.78-5.18c3.98-0.78,7.98-1.5,11.96-2.26c0.43-0.08,1.09,0.11,1.09-0.61c0.01-0.58-0.43-0.99-0.98-1.13
		c-0.45-0.12-0.95-0.13-1.42-0.13C441.73,356.13,438.2,356.14,434.67,356.12z"/>
	<path class="st0" d="M451.59,358.28c-0.73,2.4-1.43,4.81-2.07,7.24c-0.58,2.23,0.69,4,3.01,4.07c3.31,0.09,6.64,0.08,9.95,0
		c2.06-0.05,3.87-1.56,4.51-3.51c0.05-0.16-0.05-0.32-0.21-0.34c-0.49-0.05-1.17-0.04-1.52,0.07c-0.1,0.04-0.29,0.39-0.88,0.95
		c-0.55,0.52-1.17,0.88-1.97,0.88c-3-0.01-5.99,0.02-8.99-0.02c-1.65-0.02-2.16-0.66-1.76-2.23c0.55-2.17,1.18-4.33,1.83-6.47
		c0.62-2.03,1.66-2.79,3.76-2.77c2.67,0.02,5.35,0.08,8.02,0.11c0.96,0.01,1.79,0.09,2.06,1.29c0.07,0.32,0.21,0.47,0.38,0.53
		c0.36,0.14,1.5,0.06,1.59-0.01c0.24-0.2,0.12-0.85,0.07-1.19c-0.24-1.72-1.45-2.66-3.6-2.68c-2.89-0.03-5.78-0.02-8.67,0
		C454.56,354.21,452.34,355.82,451.59,358.28z M433.18,369.71c2.99-0.05,5.98,0.01,8.97,0c2.33,0,4.21-1.16,5.13-3.26
		c1.19-2.73,1.92-5.66,2.44-8.6c0.39-2.26-0.96-3.66-3.29-3.7c-1.87-0.04-3.74-0.01-5.62-0.01c0,0,0-0.01,0-0.01
		c-2.03,0-4.06,0.03-6.09-0.01c-0.87-0.01-1.31,0.36-1.38,1.19c-0.09,1.09,0.75,0.82,1.33,0.82c3.53,0.02,7.06,0.01,10.59,0.02
		c0.48,0,0.97,0.01,1.42,0.13c0.55,0.14,0.98,0.55,0.98,1.13c0,0.72-0.66,0.53-1.09,0.61c-3.98,0.76-7.98,1.48-11.96,2.26
		c-2.83,0.55-4.23,2.55-4.78,5.18C429.28,368.05,430.59,369.75,433.18,369.71z M410.22,369.6c0.51,0.18,0.93,0.18,1.31-0.07
		c0.42-0.28,0.52-0.91,0.65-1.38c0.83-2.98,1.7-5.95,2.55-8.92c0.68-2.4,1.8-3.16,4.3-3.13c3.59,0.04,7.17-0.04,10.76,0
		c0.97,0.01,1.43-0.41,1.44-1.28c0-0.73-0.79-0.66-1.3-0.67c-1.98-0.03-3.96-0.01-5.94-0.01c-1.82,0-3.64-0.01-5.46,0.01
		c-2.53,0.01-4.71,1.44-5.49,3.88c-1.1,3.46-2.05,6.96-3.05,10.45C409.88,368.88,409.68,369.41,410.22,369.6z M469.8,430.2
		c-73.32-37.77-98.23-111.14-104.5-167.33c0.72-0.91,1.43-1.83,2.14-2.74c5.14,1.05,10.27,2.24,15.48,2.92
		c8.84,1.16,17.68,2.32,26.52,3.48c3.65,0.48,7.31,0.96,10.96,1.43c-0.33,1.12-0.74,2.22-1.21,3.28c-1.25,2.86-3.13,5.26-5.75,6.98
		c-1.04,0.68-2.03,2.05-0.71,3.06c0.86,0.65,2.36,0.16,3.29-0.05c6.45-1.53,12.78-3.91,19.02-6.15c13.81,4.74,27.61,9.5,41.41,14.23
		c-0.13-0.08,0.93,0.03,0.91,0.32c-0.02,0.3-0.08,0.6-0.13,0.81c-0.01,0-0.21,0.72-0.27,0.91c-0.17,0.49-0.38,0.98-0.6,1.45
		c-0.51,1.09-1.32,2.35-2.1,3.45c-2.86,4.02-6.49,7.46-10.19,10.68c-2.9,2.53-5.94,4.9-9.02,7.19c-1.79,1.33-3.61,2.63-5.45,3.9
		c-0.68,0.47-1.51,0.87-2.03,1.55c-0.81,1.06,0.11,2.21,1.2,2.41c0.72,0.13,1.54-0.03,2.26-0.12c2.92-0.39,5.8-1.06,8.67-1.7
		c3.38-0.75,6.75-1.55,10.11-2.36v45.64c-0.2,0.82-0.39,1.63-0.56,2.44c-0.25,1.15-0.03,2.1,0.56,2.76V430.2z"/>
	<path class="st1" d="M411.53,369.53c-0.38,0.25-0.81,0.25-1.31,0.07c-0.54-0.19-0.35-0.72-0.23-1.13
		c1.01-3.49,1.95-6.99,3.05-10.45c0.78-2.44,2.96-3.88,5.49-3.88c1.82-0.01,3.64-0.01,5.46-0.01c1.97,0,3.96-0.02,5.94,0.01
		c0.51,0.01,1.3-0.06,1.3,0.67c-0.01,0.87-0.47,1.29-1.44,1.28c-3.59-0.04-7.17,0.04-10.76,0c-2.5-0.03-3.62,0.73-4.3,3.13
		c-0.85,2.97-1.72,5.94-2.55,8.92C412.05,368.62,411.96,369.25,411.53,369.53z"/>
	<path d="M556.85,294.09c1.39,1.58,4.08,2.12,6.33,2.29c1.22,0.09,1.8-1.49,0.8-2.2c-3.84-2.76-9.99-6.75-8.95-3.36
		C555.45,292.22,555.89,293,556.85,294.09z M378.75,217.67c1.56,1.19,3.06,2.46,4.53,3.77c1.46,1.3,2.9,2.66,4.32,4.01
		c0.63,0.61,1.27,1.22,1.9,1.83c0.63,0.61,1.25,1.23,1.87,1.85c0.2,0.2,0.39,0.4,0.59,0.61c0.19,0.2,0.39,0.4,0.58,0.61
		c0.06,0.06,0.12,0.12,0.17,0.18c0.05,0.05,0.11,0.11,0.16,0.18c0.04,0.07,0.08,0.14,0.14,0.2s0.11,0.12,0.17,0.17
		c0.27,0.23,0.63,0.35,0.99,0.35c0.07,0,0.14,0,0.21-0.01l11.56-1.54c11.05-1.48,22.1-2.95,33.15-4.43l10.36-1.38l6.27-0.83
		c0.07-0.01,0.14-0.02,0.21-0.05c0.06-0.02,0.13-0.05,0.19-0.08c0.32-0.16,0.56-0.45,0.69-0.78c0.53-1.4,1.05-2.82,1.53-4.24
		c0.49-1.43,0.95-2.87,1.39-4.31c2.26-7.45,3.86-15.15,4.8-22.79c0.25-2.02,0.42-4.04,0.52-6.07s0.12-4.06,0.05-6.09
		c-0.01-0.12-0.01-0.25-0.01-0.37c-0.02-0.59-0.04-1.16-0.02-1.79c0.01-0.12,0.01-0.24,0.02-0.36c0.01-0.12,0.02-0.24,0.04-0.36
		c0.08,0.09,0.16,0.17,0.23,0.26c0.09,0.09,0.16,0.19,0.24,0.29c1.63,1.97,2.84,4.25,4.07,6.56l0.23,0.43
		c0.95,1.78,1.86,3.58,2.75,5.39c0.88,1.81,1.75,3.63,2.6,5.47c1.8,3.86,3.54,7.74,5.23,11.64c1.7,3.9,3.36,7.81,5,11.74
		c0.55,1.32,1.09,2.63,1.63,3.93c0.53,1.29,1.06,2.6,1.6,3.94c0.08,0.2,0.16,0.42,0.24,0.67c0.32,0.93,0.7,2.06,1.57,2.42l5.91,2.43
		c4.14,1.7,8.28,3.4,12.41,5.11c4.11,1.7,8.22,3.39,12.34,5.08l12.33,5.08c0.42,0.18,0.85,0.35,1.28,0.53
		c4.57,1.92,10.04,4.22,14.36,1.77c0.41-0.24,1.84-1.4,1.84-1.4s0.01,1.95,0.01,2.43c0,0.01,0,0.02,0,0.04v0.15
		c0.01,0.98,0.01,1.97-0.02,2.96c-0.02,0.99-0.06,1.97-0.11,2.96v0.01c-0.01,0.09-0.01,0.18,0.01,0.26
		c0.01,0.09,0.03,0.18,0.05,0.26c0.12,0.42,0.42,0.75,0.86,0.93c3.69,1.57,7.32,3.33,10.88,5.22c3.55,1.9,7.03,3.94,10.42,6.09
		c2.72,1.72,5.4,3.53,7.98,5.5c2.57,1.96,5.03,4.07,7.28,6.37c1.1,1.12,2.1,2.29,3.04,3.51s1.83,2.49,2.71,3.77v0.01
		c0.36,0.52,0.71,1.03,1.07,1.55c1.78,2.56,3.57,5.13,4.73,8.03c0.19,0.46,0.32,0.92,0.42,1.37c0.1,0.45,0.16,0.89,0.18,1.33
		c0.08,2.22-0.92,4.21-2.81,5.89c-1.43,1.28-3.09,2.36-4.82,3.31s-3.55,1.77-5.31,2.52c-3.23,1.36-6.59,2.37-10.03,3.12
		c-3.43,0.75-6.92,1.22-10.41,1.5h-0.03c-0.65,0.05-1.31,0.09-1.96,0.14c-0.66,0.03-1.31,0.06-1.96,0.08
		c-3.36,0.1-6.74-0.01-10.07-0.34c-0.25-0.02-0.51-0.05-0.77-0.08c-0.25-0.03-0.51-0.06-0.76-0.09c-0.07-0.01-0.14-0.02-0.21-0.03
		c-0.08-0.01-0.15-0.02-0.21-0.04c-0.24-0.05-0.58-0.14-0.93-0.23v-0.01c-0.19-0.05-0.38-0.09-0.59-0.15
		c-1.87-0.46-3.77-0.95-5.66-1.43c-1.92-0.49-3.8-0.98-5.65-1.45c-3.46-0.89-6.92-1.8-10.39-2.71c-3.47-0.91-6.93-1.83-10.39-2.75
		c-1.04-0.28-2.12-0.56-3.23-0.86c-1.08-0.29-2.16-0.58-3.23-0.86c-0.16-0.05-0.37-0.12-0.59-0.19c-0.68-0.24-1.54-0.53-2.07-0.39
		c-2.43,0.65-4.85,1.3-7.27,1.93c-2.44,0.65-4.86,1.28-7.28,1.92c-4.53,1.18-9.07,2.36-13.63,3.51c-4.56,1.16-9.12,2.29-13.67,3.38
		c-1.9,0.45-3.8,0.91-5.72,1.34c-1.9,0.43-3.82,0.85-5.73,1.25c-0.28,0.05-0.56,0.11-0.87,0.17c-0.21,0.04-0.42,0.08-0.62,0.12
		c1.5-1.07,2.99-2.15,4.46-3.26c1.53-1.16,3.05-2.34,4.55-3.55c2.2-1.78,4.37-3.63,6.43-5.58c2.07-1.96,4.04-4.01,5.84-6.2
		c1.2-1.46,2.63-3.26,3.7-5.21c1.07-1.96,1.77-4.07,1.53-6.12c-0.14-1.15-1.2-1.48-2.17-1.78c-0.16-0.05-0.32-0.1-0.49-0.15
		l-4.97-1.71l-4.97-1.71c-6.07-2.09-12.14-4.17-18.21-6.26l-8.35-2.87l-0.21-0.08c-1.73-0.59-3.47-1.19-5.2-1.79
		c-0.65-0.22-1.56,0.15-2.29,0.45c-0.19,0.08-0.37,0.15-0.53,0.21c-0.84,0.3-1.67,0.59-2.48,0.87c-0.81,0.28-1.64,0.57-2.49,0.86
		l-0.38,0.13c-2.98,1.02-5.98,2.04-9.01,2.91c0.22-0.25,0.43-0.5,0.63-0.76c0.24-0.31,0.48-0.62,0.7-0.93
		c0.26-0.38,0.52-0.75,0.76-1.15c0.24-0.39,0.47-0.79,0.69-1.2c1.12-2.11,1.93-4.44,2.37-6.73c0.01-0.02,0.01-0.05,0.01-0.07
		c0.05-0.36-0.09-0.7-0.32-0.96c-0.23-0.26-0.55-0.44-0.88-0.51c-0.02-0.01-0.05-0.01-0.08-0.02l-41.47-5.44h-0.01
		c-3.07-0.41-6.15-1.08-9.2-1.77c-1.52-0.33-3.38-0.95-4.87-1.25c-0.07-0.02-0.15-0.02-0.21-0.02c-0.07,0-0.14,0.01-0.21,0.02
		c-0.23,0.1-0.23,0.1-0.23,0.1c-12.32,11.23-24.23,22.02-29.94,26c-1.02,0.72-2.33-0.41-1.78-1.53c2.1-4.25,8.55-10.88,9.51-16.64
		c0.01-0.04,0.01-0.09,0.02-0.13c0.99-10.64-0.3-17.68-4.81-24.58c-3.82-7.25-22.26-16.82-35.46-30.07
		c-0.65-0.65-0.36-1.75,0.52-2.02c7.41-2.25,24.77,6.17,58.7,30.8c0.4,0.29,0.93,0.31,1.35,0.06c0,0,8.89-3.98,11.17-6.27
		c0.91-0.91,1.6-1.95,2.2-3.04c0.59-1.1,1.08-2.26,1.56-3.43c0.5-1.22,0.7-2.4,0.68-3.59s-0.28-2.37-0.67-3.6
		c-0.1-0.31-0.21-0.61-0.34-0.91c-0.1-0.24-0.2-0.46-0.3-0.69l0.09,0.06C378.59,217.55,378.67,217.61,378.75,217.67z"/>
</g>
</svg>
